Coordinates
version=1
nRows=6
nColumns=36
inDegrees=yes

Units are S.I. units (second, meters, Newtons, ...)
If the header above contains a line with 'inDegrees', this indicates whether rotational values are in degrees (yes) or radians (no).

endheader
time	pelvis_tilt	pelvis_list	pelvis_rotation	pelvis_tx	pelvis_ty	pelvis_tz	hip_flexion_r	hip_adduction_r	hip_rotation_r	knee_angle_r	knee_angle_r_beta	ankle_angle_r	subtalar_angle_r	mtp_angle_r	hip_flexion_l	hip_adduction_l	hip_rotation_l	knee_angle_l	knee_angle_l_beta	ankle_angle_l	subtalar_angle_l	mtp_angle_l	lumbar_extension	lumbar_bending	lumbar_rotation	arm_flex_r	arm_add_r	arm_rot_r	elbow_flex_r	pro_sup_r	arm_flex_l	arm_add_l	arm_rot_l	elbow_flex_l	pro_sup_l
      1.71666670	    -14.39682569	     -0.75024006	      0.87181992	     -0.92752043	      1.24539993	     -0.00493843	     22.81715159	      0.96282808	     -1.28315979	     14.86165377	      0.25938479	      1.50034667	    -29.56100155	     -7.49999987	     22.01250408	     -1.60660171	     10.84648562	     16.34002925	      0.28518731	     10.11346720	    -17.01549814	     -7.49999987	     -5.56076205	      0.27707493	      0.59389806	     -1.93712015	     -7.01072765	      2.90621659	     29.67166592	     83.28867196	     -1.37955695	     -5.58451697	      1.10577081	     29.89655847	     95.67991339
      1.72083330	    -15.05930346	     -0.76927248	      0.90884645	     -0.92722446	      1.24524818	     -0.00568959	     23.69486337	      0.96889523	     -1.15751081	     15.20355070	      0.26535202	      1.64193265	    -29.64118325	     -7.49999987	     22.80814697	     -1.60059797	     10.91966652	     16.52596257	      0.28843246	     10.23763225	    -17.06332223	     -7.49999987	     -4.81301495	      0.27084862	      0.54796780	     -2.18553545	     -7.04905440	      2.77974657	     30.13409575	     82.23814319	     -1.68287137	     -5.67056632	      1.00506980	     30.34072155	     94.86348769
      1.72500000	    -15.16719469	     -0.79126394	      0.99939247	     -0.92711208	      1.24988948	     -0.00573001	     23.79661870	      0.99361249	     -1.04443389	     15.28687603	      0.26680632	      1.65229688	    -29.60906405	     -7.49999987	     22.87643971	     -1.60896519	     11.00013145	     16.45859964	      0.28725675	     10.28660469	    -17.03443886	     -7.49999987	     -4.81210252	      0.26479447	      0.53634894	     -2.09512597	     -7.06241394	      2.77020923	     30.12740442	     82.25961239	     -1.55022201	     -5.74019134	      0.98581268	     30.33334629	     94.88189893
      1.72916670	    -15.93274412	     -0.71400827	      1.01644099	     -0.92720532	      1.24903460	     -0.00639127	     24.70812000	      0.88013897	     -1.02554054	     15.48753431	      0.27030847	      2.13203298	    -29.02852405	     -7.49999987	     23.64821651	     -1.50901040	     10.86134290	     16.40743397	      0.28636374	     10.35416458	    -16.76670777	     -7.49999987	     -3.80728758	      0.18524157	      0.51938786	     -2.26856909	     -7.03596638	      2.73877468	     30.16054139	     81.17391192	     -1.76337525	     -5.77142296	      1.03596139	     30.29114412	     93.55932333
      1.73333330	    -16.22663444	     -0.65003492	      1.00332568	     -0.92790074	      1.25002837	     -0.00638738	     24.96307629	      0.81852639	     -0.90664338	     15.37627987	      0.26836671	      2.03364061	    -29.04898938	     -7.49999987	     23.86732717	     -1.41880741	     10.88875050	     16.19882954	      0.28272291	     10.11916419	    -16.91078950	     -7.49999987	     -3.55125684	      0.11585516	      0.54609668	     -2.13899100	     -7.06687790	      2.94055290	     29.94586888	     80.46171170	     -1.63696243	     -5.79828845	      1.34419961	     30.04270525	     92.64435593
      1.73750000	    -16.18800436	     -0.60797272	      0.99278794	     -0.92773097	      1.25044949	     -0.00602834	     24.77373544	      0.79345240	     -0.82635551	     15.12341143	      0.26395332	      2.03570897	    -28.72942283	     -7.49999987	     23.64813520	     -1.37857090	     10.86417401	     15.81020355	      0.27594011	      9.90377712	    -16.93792305	     -7.49999987	     -3.85331531	      0.08413429	      0.59831779	     -2.11476676	     -7.11766022	      2.35448979	     30.38220271	     84.86425912	     -1.59523391	     -5.84501840	      0.75965905	     30.45225349	     97.36902961
